<svg height="512" viewBox="0 0 48 58" width="512" xmlns="http://www.w3.org/2000/svg"><g id="Page-1" fill="none" fill-rule="evenodd"><g id="110---File" fill-rule="nonzero"><path id="Shape" d="m0 54v-50c0-2.209139 1.790861-4 4-4h40c2.209139 0 4 1.790861 4 4v42l-12 12h-32c-2.209139 0-4-1.790861-4-4z" fill="#b0d3f0"/><path id="Shape" d="m36 58v-8c0-2.209139 1.790861-4 4-4h8z" fill="#90bae1"/><g fill="#285680"><path id="Shape" d="m8 7h-2c-.55228475 0-1-.44771525-1-1s.44771525-1 1-1h2c.55228475 0 1 .44771525 1 1s-.44771525 1-1 1z"/><path id="Shape" d="m42 7h-30c-.5522847 0-1-.44771525-1-1s.4477153-1 1-1h30c.5522847 0 1 .44771525 1 1s-.4477153 1-1 1z"/><path id="Shape" d="m8 13h-2c-.55228475 0-1-.4477153-1-1s.44771525-1 1-1h2c.55228475 0 1 .4477153 1 1s-.44771525 1-1 1z"/><path id="Shape" d="m35 13h-23c-.5522847 0-1-.4477153-1-1s.4477153-1 1-1h23c.5522847 0 1 .4477153 1 1s-.4477153 1-1 1z"/><path id="Shape" d="m8 19h-2c-.55228475 0-1-.4477153-1-1s.44771525-1 1-1h2c.55228475 0 1 .4477153 1 1s-.44771525 1-1 1z"/><path id="Shape" d="m28 19h-16c-.5522847 0-1-.4477153-1-1s.4477153-1 1-1h16c.5522847 0 1 .4477153 1 1s-.4477153 1-1 1z"/></g><path id="Shape" d="m44 37c-.5522847 0-1-.4477153-1-1v-16c0-.5522847.4477153-1 1-1s1 .4477153 1 1v16c0 .5522847-.4477153 1-1 1z" fill="#ecf0f1"/><path id="Shape" d="m44 43c-.5522847 0-1-.4477153-1-1v-2c0-.5522847.4477153-1 1-1s1 .4477153 1 1v2c0 .5522847-.4477153 1-1 1z" fill="#ecf0f1"/></g></g></svg>